<?xml version="1.0" standalone="no"?>
<!DOCTYPE svg PUBLIC "-//W3C//DTD SVG 20010904//EN"
 "http://www.w3.org/TR/2001/REC-SVG-20010904/DTD/svg10.dtd">
<svg version="1.0" xmlns="http://www.w3.org/2000/svg"
 width="512.000000pt" height="512.000000pt" viewBox="0 0 512.000000 512.000000"
 preserveAspectRatio="xMidYMid meet">
<metadata>
Created by potrace 1.16, written by Peter Selinger 2001-2019
</metadata>
<g transform="translate(0.000000,512.000000) scale(0.100000,-0.100000)"
fill="#000000" stroke="none">
<path d="M1768 3821 c-75 -30 -124 -75 -160 -149 l-33 -67 0 -985 c0 -1123 -9
-1015 93 -1123 68 -71 147 -126 251 -176 l76 -36 715 0 715 0 49 24 c63 31
113 82 142 145 l24 51 0 955 0 955 -24 50 c-12 28 -35 64 -50 82 -36 43 -138
93 -190 93 -39 0 -43 3 -69 49 -30 55 -68 91 -131 124 -41 22 -42 22 -701 24
-623 2 -663 1 -707 -16z m1647 -405 c14 -14 26 -41 30 -67 3 -24 5 -440 3
-924 -3 -951 -1 -909 -55 -934 -16 -8 -236 -11 -686 -11 -731 0 -684 -3 -784
64 -28 20 -33 26 -18 26 11 0 288 1 615 2 l595 3 50 23 c63 29 119 83 153 147
l27 50 3 823 c3 817 3 822 23 822 11 0 31 -11 44 -24z m-855 -316 l0 -150 145
0 145 0 0 -95 0 -95 -145 0 -145 0 0 -295 0 -295 -100 0 -100 0 0 295 0 295
-145 0 -145 0 0 95 0 95 145 0 145 0 0 150 0 150 100 0 100 0 0 -150z"/>
</g>
</svg>
