<?xml version="1.0" standalone="no"?>
<!DOCTYPE svg PUBLIC "-//W3C//DTD SVG 20010904//EN"
 "http://www.w3.org/TR/2001/REC-SVG-20010904/DTD/svg10.dtd">
<svg version="1.0" xmlns="http://www.w3.org/2000/svg"
 width="736.000000pt" height="736.000000pt" viewBox="0 0 736.000000 736.000000"
 preserveAspectRatio="xMidYMid meet">
<metadata>
Created by potrace 1.16, written by Peter Selinger 2001-2019
</metadata>
<g transform="translate(0.000000,736.000000) scale(0.100000,-0.100000)"
fill="#000000" stroke="none">
<path d="M3605 6525 l-25 -24 0 -451 c0 -435 1 -451 20 -470 24 -24 62 -34 95
-26 14 4 34 15 45 26 19 19 20 35 20 474 l0 455 -26 20 c-38 30 -98 28 -129
-4z"/>
<path d="M1875 5658 c-34 -18 -55 -51 -55 -88 0 -32 22 -56 318 -352 276 -277
321 -318 347 -318 58 0 112 64 99 117 -5 17 -114 134 -303 322 -162 163 -307
304 -321 313 -29 20 -56 22 -85 6z"/>
<path d="M5394 5648 c-62 -49 -605 -600 -614 -624 -21 -53 34 -124 95 -124 26
0 71 41 347 318 296 296 318 320 318 352 0 38 -22 71 -57 89 -33 17 -57 13
-89 -11z"/>
<path d="M3440 5005 c-201 -33 -409 -119 -572 -235 -107 -77 -267 -239 -338
-345 -109 -162 -181 -339 -215 -528 -14 -80 -17 -132 -12 -270 7 -231 40 -362
139 -562 60 -121 129 -218 249 -350 171 -188 268 -371 315 -601 l16 -76 -41
-39 c-55 -53 -83 -111 -89 -185 -7 -94 17 -155 91 -227 l59 -59 -12 -44 c-35
-123 33 -267 149 -320 34 -16 47 -30 72 -81 46 -96 125 -175 224 -224 71 -35
94 -42 167 -46 98 -6 167 6 246 45 100 49 198 156 232 253 10 27 23 41 50 53
117 51 186 209 145 329 l-16 49 38 33 c124 106 135 292 25 403 -26 27 -57 55
-69 63 -22 14 -22 15 -8 82 49 226 142 399 327 608 52 58 110 128 130 155 95
132 172 299 214 469 35 136 44 394 20 535 -49 284 -176 530 -376 731 -190 190
-415 314 -673 370 -123 26 -370 34 -487 14z m396 -190 c427 -73 782 -380 913
-790 38 -118 53 -224 53 -365 -1 -304 -114 -575 -341 -815 -193 -203 -334
-488 -373 -750 -3 -20 -11 -20 -442 -20 l-439 0 -18 86 c-52 254 -169 476
-355 679 -116 126 -162 190 -222 307 -90 178 -124 319 -123 523 0 198 35 349
120 518 230 455 732 711 1227 627z m387 -2965 c37 -41 36 -83 -2 -121 l-29
-29 -525 0 -525 0 -31 26 c-25 20 -31 34 -31 64 0 53 26 82 81 89 24 3 267 5
539 3 l495 -3 28 -29z m-134 -354 c26 -14 51 -53 51 -81 0 -8 -5 -26 -12 -40
-24 -54 -34 -55 -453 -55 -411 0 -429 2 -455 49 -24 46 -2 113 44 131 11 5
196 9 409 9 317 1 393 -2 416 -13z m-188 -392 c-109 -139 -333 -139 -442 0
l-20 26 241 0 241 0 -20 -26z"/>
<path d="M3079 4201 l-24 -19 -3 -575 -2 -575 26 -31 26 -31 566 0 c430 1 571
4 583 13 35 27 39 53 39 270 0 199 -1 216 -20 240 -26 33 -62 41 -105 23 -19
-8 -36 -16 -37 -18 -1 -2 -4 -82 -7 -178 l-6 -175 -445 0 -445 0 -3 453 -2
452 344 0 c329 0 344 1 369 20 14 11 28 33 32 49 7 33 -15 85 -40 95 -9 3
-198 6 -420 6 -382 0 -404 -1 -426 -19z"/>
<path d="M4211 4021 c-15 -16 -121 -140 -236 -275 -155 -183 -211 -243 -221
-235 -6 5 -79 93 -160 195 -97 121 -157 187 -173 191 -39 10 -74 -9 -95 -51
-16 -34 -17 -41 -5 -67 8 -16 97 -132 199 -258 125 -156 194 -233 213 -240 44
-16 77 5 154 94 466 546 468 547 468 588 0 79 -90 115 -144 58z"/>
</g>
</svg>
