<?xml version="1.0" standalone="no"?>
<!DOCTYPE svg PUBLIC "-//W3C//DTD SVG 20010904//EN"
 "http://www.w3.org/TR/2001/REC-SVG-20010904/DTD/svg10.dtd">
<svg version="1.0" xmlns="http://www.w3.org/2000/svg"
 width="360.000000pt" height="360.000000pt" viewBox="0 0 360.000000 360.000000"
 preserveAspectRatio="xMidYMid meet">
<metadata>
Created by potrace 1.16, written by Peter Selinger 2001-2019
</metadata>
<g transform="translate(0.000000,360.000000) scale(0.100000,-0.100000)"
fill="#000000" stroke="none">
<path d="M2340 2603 c0 -6 49 -13 113 -16 277 -16 401 -100 499 -338 17 -43
36 -79 40 -79 11 0 11 0 -21 85 -73 187 -193 296 -371 334 -77 17 -260 27
-260 14z"/>
<path d="M1199 2571 c7 -5 246 -12 530 -17 l516 -9 -628 -7 c-712 -8 -752 -12
-877 -75 -81 -41 -130 -94 -151 -161 -6 -20 -14 -82 -16 -137 -11 -224 115
-746 209 -870 79 -104 219 -154 432 -155 64 0 72 -3 130 -43 494 -349 650
-457 653 -454 2 2 -46 114 -106 248 l-109 244 72 7 c39 4 150 15 246 23 449
40 594 55 629 65 89 24 237 145 272 222 46 102 29 296 -61 700 -34 153 -94
243 -197 292 -32 16 -85 41 -118 57 -113 54 -142 57 -670 68 -594 13 -775 14
-756 2z m1300 -95 c51 -9 118 -24 148 -33 93 -29 121 -81 188 -353 74 -299
106 -590 76 -681 -21 -65 -112 -101 -371 -148 -214 -39 -380 -58 -617 -73
-106 -7 -193 -15 -193 -19 0 -4 41 -98 90 -209 50 -112 88 -205 86 -207 -2 -3
-142 93 -310 211 l-305 216 -88 0 c-241 0 -364 61 -433 214 -79 176 -160 551
-161 744 -1 192 60 276 235 327 103 30 187 33 881 30 573 -2 695 -5 774 -19z
m325 -141 c49 -64 74 -148 121 -397 57 -304 60 -427 12 -492 -12 -17 -15 -1
-20 120 -3 76 -15 195 -27 264 -27 163 -94 430 -125 499 -14 29 -25 55 -25 58
0 12 41 -21 64 -52z"/>
<path d="M1290 2449 c-155 -11 -305 -28 -360 -41 -117 -29 -192 -84 -231 -171
-22 -48 -24 -64 -23 -212 0 -133 5 -181 27 -287 27 -128 102 -348 118 -348 13
0 12 1 -20 83 -93 235 -139 580 -95 726 27 92 109 161 228 190 103 25 333 43
633 48 172 3 310 10 307 14 -6 11 -424 9 -584 -2z"/>
</g>
</svg>
