<?xml version="1.0" standalone="no"?>
<!DOCTYPE svg PUBLIC "-//W3C//DTD SVG 20010904//EN"
 "http://www.w3.org/TR/2001/REC-SVG-20010904/DTD/svg10.dtd">
<svg version="1.0" xmlns="http://www.w3.org/2000/svg"
 width="736.000000pt" height="732.000000pt" viewBox="0 0 736.000000 732.000000"
 preserveAspectRatio="xMidYMid meet">
<metadata>
Created by potrace 1.16, written by Peter Selinger 2001-2019
</metadata>
<g transform="translate(0.000000,732.000000) scale(0.100000,-0.100000)"
fill="#000000" stroke="none">
<path d="M5020 5930 c-11 -40 -11 -40 -60 -40 -74 0 -80 -5 -80 -62 0 -73 -11
-88 -68 -88 -67 0 -117 -17 -158 -52 -67 -59 -67 -56 -75 -448 -4 -195 -9
-399 -10 -453 -1 -56 2 -102 8 -108 6 -6 34 -9 64 -7 l54 3 -2 155 c-1 85 -5
260 -8 389 -11 371 -1 410 107 419 92 7 90 19 83 -322 -3 -160 -8 -704 -10
-1209 l-5 -918 95 -287 c53 -158 98 -294 101 -302 7 -19 11 -8 121 320 l88
265 0 1350 0 1350 -63 1 c-69 1 -82 9 -82 57 0 25 -3 27 -45 27 -43 0 -44 -1
-55 -40z m128 -608 l2 -443 -77 3 -78 3 -3 430 c-1 237 0 436 3 443 3 9 25 12
77 10 l73 -3 3 -443z m2 -1317 l0 -735 -23 -5 c-27 -7 -109 -1 -125 9 -9 5
-12 194 -12 730 0 397 3 726 7 729 3 4 39 7 80 7 l73 0 0 -735z"/>
<path d="M2521 5067 c-50 -16 -117 -84 -130 -132 -6 -22 -11 -95 -11 -161 0
-131 -2 -137 -55 -150 -17 -4 -53 -23 -81 -41 -113 -75 -170 -211 -143 -341
14 -72 37 -117 89 -177 22 -25 40 -51 40 -57 0 -5 -19 -31 -41 -56 -64 -73
-91 -142 -92 -234 0 -64 5 -87 30 -141 17 -35 47 -80 67 -100 20 -20 36 -44
36 -53 0 -9 -18 -37 -41 -61 -62 -68 -89 -137 -89 -233 0 -96 27 -165 89 -233
23 -24 41 -50 41 -57 0 -6 -20 -35 -44 -64 -48 -56 -82 -125 -92 -185 -13 -84
37 -229 102 -292 18 -17 66 -48 106 -68 l73 -36 5 -300 5 -300 31 -65 c47 -98
115 -159 218 -193 45 -15 152 -17 1187 -17 1092 0 1139 1 1181 19 53 22 94 68
108 120 6 25 9 187 8 442 l-3 403 -41 12 c-23 7 -46 9 -52 5 -6 -4 -12 -57
-15 -129 -3 -110 -6 -125 -26 -145 l-22 -22 -1162 -5 c-1139 -5 -1163 -6
-1209 -25 -26 -12 -50 -24 -54 -28 -4 -4 -13 -7 -21 -7 -11 0 -13 72 -13 389
0 273 3 392 11 397 15 9 89 -45 117 -86 12 -18 25 -51 28 -72 l7 -38 65 0 65
0 -7 56 c-8 65 -33 120 -83 174 -40 46 -141 110 -171 110 -11 0 -23 7 -26 16
-3 9 -6 108 -6 220 0 232 -1 231 78 173 47 -34 67 -66 77 -122 8 -42 26 -51
91 -45 l39 3 0 50 c-1 122 -112 246 -267 298 -19 7 -18 0 -23 400 0 35 3 42
21 45 48 7 126 -85 143 -169 7 -34 7 -34 70 -37 l64 -3 -6 55 c-11 110 -101
222 -222 277 l-65 29 0 210 c0 131 4 211 10 215 14 8 73 -29 103 -64 13 -16
31 -54 41 -85 l18 -57 57 3 56 3 -1 53 c-4 125 -109 242 -267 296 -17 5 -18
17 -15 130 4 145 11 159 92 175 32 7 359 10 894 10 464 0 846 2 849 5 3 3 1
27 -3 53 l-9 48 -885 2 c-620 1 -895 -2 -919 -10z m-146 -767 l0 -215 -27 -3
c-39 -5 -117 75 -141 143 -24 69 -22 107 12 178 32 70 89 119 131 115 l25 -3
0 -215z m3 -576 c3 -236 0 -249 -55 -220 -78 41 -140 148 -131 228 11 96 104
214 162 206 20 -3 21 -8 24 -214z m0 -592 c3 -238 2 -241 -64 -206 -51 27 -80
62 -103 122 -26 67 -26 108 0 169 33 78 96 135 144 130 19 -2 20 -10 23 -215z
m-10 -374 c9 -9 12 -71 12 -219 0 -233 0 -234 -70 -199 -44 23 -80 66 -103
128 -21 53 -21 88 -1 149 21 63 56 108 102 133 44 23 45 23 60 8z m2637 -943
l0 -80 -1130 -5 -1130 -5 -3 -62 -3 -63 1133 -2 1133 -3 3 -56 c3 -53 1 -58
-28 -83 l-32 -26 -1126 1 c-1247 0 -1166 -4 -1247 64 -44 36 -79 123 -72 180
8 80 69 168 137 199 18 8 352 12 1180 16 635 3 1162 5 1170 5 12 0 15 -16 15
-80z"/>
</g>
</svg>
